<svg width="98" height="13" viewBox="0 0 98 13" fill="none" xmlns="http://www.w3.org/2000/svg">
<path d="M0.409091 12.6568V1.02039H4.34091C5.25 1.02039 5.99621 1.17569 6.57955 1.4863C7.16288 1.79312 7.5947 2.21547 7.875 2.75334C8.1553 3.29122 8.29545 3.90297 8.29545 4.58857C8.29545 5.27418 8.1553 5.88213 7.875 6.41244C7.5947 6.94274 7.16477 7.3594 6.58523 7.66244C6.00568 7.96168 5.26515 8.1113 4.36364 8.1113H1.18182V6.83857H4.31818C4.93939 6.83857 5.43939 6.74766 5.81818 6.56584C6.20076 6.38403 6.47727 6.12645 6.64773 5.79312C6.82197 5.456 6.90909 5.05448 6.90909 4.58857C6.90909 4.12266 6.82197 3.71547 6.64773 3.36698C6.47349 3.0185 6.19508 2.74956 5.8125 2.56016C5.42992 2.36698 4.92424 2.27039 4.29545 2.27039H1.81818V12.6568H0.409091ZM5.88636 7.42948L8.75 12.6568H7.11364L4.29545 7.42948H5.88636ZM20.4616 6.83857C20.4616 8.06584 20.2401 9.12645 19.7969 10.0204C19.3537 10.9143 18.7457 11.6037 17.973 12.0886C17.2003 12.5734 16.3177 12.8158 15.3253 12.8158C14.3329 12.8158 13.4503 12.5734 12.6776 12.0886C11.9048 11.6037 11.2969 10.9143 10.8537 10.0204C10.4105 9.12645 10.1889 8.06584 10.1889 6.83857C10.1889 5.6113 10.4105 4.55069 10.8537 3.65675C11.2969 2.76281 11.9048 2.07342 12.6776 1.58857C13.4503 1.10372 14.3329 0.861299 15.3253 0.861299C16.3177 0.861299 17.2003 1.10372 17.973 1.58857C18.7457 2.07342 19.3537 2.76281 19.7969 3.65675C20.2401 4.55069 20.4616 5.6113 20.4616 6.83857ZM19.098 6.83857C19.098 5.831 18.9295 4.98062 18.5923 4.28744C18.259 3.59425 17.8063 3.06963 17.2344 2.71357C16.6662 2.35751 16.0298 2.17948 15.3253 2.17948C14.6207 2.17948 13.9825 2.35751 13.4105 2.71357C12.8423 3.06963 12.3897 3.59425 12.0526 4.28744C11.7192 4.98062 11.5526 5.831 11.5526 6.83857C11.5526 7.84615 11.7192 8.69653 12.0526 9.38971C12.3897 10.0829 12.8423 10.6075 13.4105 10.9636C13.9825 11.3196 14.6207 11.4977 15.3253 11.4977C16.0298 11.4977 16.6662 11.3196 17.2344 10.9636C17.8063 10.6075 18.259 10.0829 18.5923 9.38971C18.9295 8.69653 19.098 7.84615 19.098 6.83857ZM32.1946 4.65675H30.7855C30.7022 4.25145 30.5563 3.89539 30.348 3.58857C30.1435 3.28175 29.8935 3.02418 29.598 2.81584C29.3063 2.60372 28.9825 2.44463 28.6264 2.33857C28.2704 2.23251 27.8991 2.17948 27.5128 2.17948C26.8082 2.17948 26.17 2.35751 25.598 2.71357C25.0298 3.06963 24.5772 3.59425 24.2401 4.28744C23.9067 4.98062 23.7401 5.831 23.7401 6.83857C23.7401 7.84615 23.9067 8.69653 24.2401 9.38971C24.5772 10.0829 25.0298 10.6075 25.598 10.9636C26.17 11.3196 26.8082 11.4977 27.5128 11.4977C27.8991 11.4977 28.2704 11.4446 28.6264 11.3386C28.9825 11.2325 29.3063 11.0753 29.598 10.867C29.8935 10.6549 30.1435 10.3954 30.348 10.0886C30.5563 9.77797 30.7022 9.4219 30.7855 9.02039H32.1946C32.0885 9.61509 31.8954 10.1473 31.6151 10.617C31.3348 11.0867 30.9863 11.4863 30.5696 11.8158C30.1529 12.1416 29.6851 12.3897 29.1662 12.5602C28.651 12.7306 28.0999 12.8158 27.5128 12.8158C26.5204 12.8158 25.6378 12.5734 24.8651 12.0886C24.0923 11.6037 23.4844 10.9143 23.0412 10.0204C22.598 9.12645 22.3764 8.06584 22.3764 6.83857C22.3764 5.6113 22.598 4.55069 23.0412 3.65675C23.4844 2.76281 24.0923 2.07342 24.8651 1.58857C25.6378 1.10372 26.5204 0.861299 27.5128 0.861299C28.0999 0.861299 28.651 0.946526 29.1662 1.11698C29.6851 1.28744 30.1529 1.53744 30.5696 1.86698C30.9863 2.19274 31.3348 2.59047 31.6151 3.06016C31.8954 3.52607 32.0885 4.05827 32.1946 4.65675ZM34.4716 12.6568V1.02039H35.8807V6.79312H36.017L41.2443 1.02039H43.0852L38.1989 6.27039L43.0852 12.6568H41.3807L37.3352 7.24766L35.8807 8.88403V12.6568H34.4716ZM44.9091 12.6568V1.02039H51.9318V2.27039H46.3182V6.20221H51.5682V7.45221H46.3182V11.4068H52.0227V12.6568H44.9091ZM53.8352 2.27039V1.02039H62.5625V2.27039H58.9034V12.6568H57.4943V2.27039H53.8352Z" fill="#959595"/>
<path d="M64.3395 12.6568V1.02039H66.7997V10.6283H71.7884V12.6568H64.3395ZM75.8778 1.02039V12.6568H73.4176V1.02039H75.8778ZM84.2145 4.36698C84.169 3.90865 83.974 3.55259 83.6293 3.2988C83.2846 3.04501 82.8168 2.91812 82.2259 2.91812C81.8243 2.91812 81.4853 2.97493 81.2088 3.08857C80.9323 3.19842 80.7202 3.35183 80.5724 3.5488C80.4285 3.74577 80.3565 3.96925 80.3565 4.21925C80.349 4.42759 80.3925 4.60941 80.4872 4.76471C80.5857 4.92001 80.7202 5.05448 80.8906 5.16812C81.0611 5.27797 81.258 5.37456 81.4815 5.45789C81.705 5.53744 81.9437 5.60562 82.1974 5.66244L83.2429 5.91244C83.7505 6.02607 84.2164 6.17759 84.6406 6.36698C85.0649 6.55637 85.4323 6.78933 85.7429 7.06584C86.0535 7.34236 86.294 7.66812 86.4645 8.04312C86.6387 8.41812 86.7277 8.84804 86.7315 9.33289C86.7277 10.045 86.5459 10.6624 86.1861 11.1852C85.83 11.7041 85.3149 12.1075 84.6406 12.3954C83.9702 12.6795 83.1615 12.8215 82.2145 12.8215C81.2751 12.8215 80.4569 12.6776 79.7599 12.3897C79.0668 12.1018 78.5251 11.6757 78.1349 11.1113C77.7486 10.5431 77.5459 9.84047 77.527 9.00334H79.9077C79.9342 9.3935 80.0459 9.71925 80.2429 9.98062C80.4437 10.2382 80.7107 10.4333 81.044 10.5658C81.3812 10.6946 81.7618 10.759 82.1861 10.759C82.6027 10.759 82.9645 10.6984 83.2713 10.5772C83.5819 10.456 83.8224 10.2874 83.9929 10.0715C84.1634 9.85562 84.2486 9.60751 84.2486 9.32721C84.2486 9.06584 84.1709 8.84615 84.0156 8.66812C83.8641 8.49009 83.6406 8.33857 83.3452 8.21357C83.0535 8.08857 82.6955 7.97494 82.2713 7.87266L81.0043 7.55448C80.0232 7.31584 79.2486 6.94274 78.6804 6.43516C78.1122 5.92759 77.83 5.24387 77.8338 4.38403C77.83 3.67948 78.0175 3.06395 78.3963 2.53744C78.7789 2.01092 79.3035 1.59994 79.9702 1.30448C80.6368 1.00903 81.3944 0.861299 82.2429 0.861299C83.1065 0.861299 83.8603 1.00903 84.5043 1.30448C85.152 1.59994 85.6558 2.01092 86.0156 2.53744C86.3755 3.06395 86.5611 3.6738 86.5724 4.36698H84.2145ZM87.9432 3.0488V1.02039H97.5V3.0488H93.9375V12.6568H91.5057V3.0488H87.9432Z" fill="white"/>
</svg>
